<svg width="65" height="43" viewBox="0 0 65 43" fill="none" xmlns="http://www.w3.org/2000/svg">
<path d="M15.917 25.5373V36.1666H53.2749C54.3422 36.1666 55.2075 35.3013 55.2075 34.234C55.2075 33.2956 55.2075 26.4738 55.2075 25.5373L35.5622 22.9603L15.917 25.5373Z" fill="#8B9BA9"/>
<path d="M51.3422 25.022V32.3015H15.917V36.1667H53.2749C54.3422 36.1667 55.2075 35.3014 55.2075 34.2341C55.2075 33.3448 55.2075 26.4096 55.2075 25.5373L51.3422 25.022Z" fill="#6C7A88"/>
<path d="M56.9474 0.0692139H21.7157C20.6484 0.0692139 19.7831 0.934506 19.7831 2.00182V8.02447H6.89457C5.08668 8.02447 3.52024 9.27783 3.12354 11.0417L1.66081 17.5463C1.28511 19.2171 1.09546 20.9245 1.09546 22.637V36.1664H19.7831C19.7831 35.8519 19.7831 31.072 19.7831 25.5371H56.9475C58.0148 25.5371 58.8801 24.6718 58.8801 23.6045V2.00182C58.88 0.934377 58.0149 0.0692139 56.9474 0.0692139Z" fill="#FF7E40"/>
<path d="M64.034 17.2375H58.8801V13.7695H61.4571C61.9909 13.7695 62.4234 13.3368 62.4234 12.8032C62.4234 12.2695 61.9909 11.8369 61.4571 11.8369H58.8801V8.36886H62.7455C63.2793 8.36886 63.7118 7.93621 63.7118 7.40255C63.7118 6.8689 63.2793 6.43625 62.7455 6.43625H58.8801V2.96812H64.034C64.5678 2.96812 65.0003 2.53548 65.0003 2.00182C65.0003 1.46816 64.5678 1.03552 64.034 1.03552H58.6195C58.2852 0.458441 57.6625 0.0692139 56.9475 0.0692139H55.0149V21.672H19.7831C19.7831 14.8735 19.7831 8.20794 19.7831 8.02434H15.9179V25.5372H13.019C10.2018 25.5372 7.63901 26.641 5.735 28.4361H1.09546V36.1666H19.7831C19.7831 35.9044 19.7831 31.1025 19.7831 25.5372H31.6949H56.9475C57.6625 25.5372 58.2852 25.148 58.6195 24.5709H62.7455C63.2793 24.5709 63.7118 24.1383 63.7118 23.6046C63.7118 23.071 63.2793 22.6383 62.7455 22.6383H58.8801V19.1702H64.034C64.5678 19.1702 65.0003 18.7376 65.0003 18.2039C65.0003 17.6702 64.5678 17.2375 64.034 17.2375Z" fill="#FF6344"/>
<path d="M0.966303 36.1664H8.03913V32.3011H0.966303C0.432646 32.3011 0 32.7338 0 33.2675V35.2001C0 35.7338 0.432646 36.1664 0.966303 36.1664Z" fill="#8B9BA9"/>
<path d="M15.9179 11.8895H6.66405L4.82666 20.0602H15.9179V11.8895Z" fill="#9DC6FB"/>
<path d="M12.2832 16.195H5.69582L4.82666 20.0602H15.9179V11.8895H12.2832V16.195Z" fill="#80B4FB"/>
<path d="M45.8667 42.9305C49.6024 42.9305 52.6308 39.9021 52.6308 36.1663C52.6308 32.4306 49.6024 29.4022 45.8667 29.4022C42.1309 29.4022 39.1025 32.4306 39.1025 36.1663C39.1025 39.9021 42.1309 42.9305 45.8667 42.9305Z" fill="#4D5967"/>
<path d="M47.2499 29.5449C46.4571 31.0097 46.6788 32.8784 47.917 34.1164L43.8173 38.2162C42.5792 36.978 40.7105 36.7561 39.2456 37.5491C39.8857 40.6177 42.6112 42.9304 45.8671 42.9304C49.5969 42.9304 52.6312 39.8961 52.6312 36.1663C52.6311 32.9104 50.3185 30.185 47.2499 29.5449Z" fill="#35404A"/>
<path d="M45.8664 39.0654C47.4675 39.0654 48.7654 37.7675 48.7654 36.1665C48.7654 34.5655 47.4675 33.2676 45.8664 33.2676C44.2654 33.2676 42.9675 34.5655 42.9675 36.1665C42.9675 37.7675 44.2654 39.0654 45.8664 39.0654Z" fill="#FFF9EB"/>
<path d="M13.0188 42.9305C16.7545 42.9305 19.7829 39.9021 19.7829 36.1663C19.7829 32.4306 16.7545 29.4022 13.0188 29.4022C9.28304 29.4022 6.25464 32.4306 6.25464 36.1663C6.25464 39.9021 9.28304 42.9305 13.0188 42.9305Z" fill="#4D5967"/>
<path d="M14.402 29.5449C13.6092 31.0097 13.8309 32.8784 15.069 34.1164L10.9693 38.2162C9.73132 36.978 7.86262 36.7561 6.39771 37.5491C7.03778 40.6177 9.76327 42.9304 13.0192 42.9304C16.749 42.9304 19.7833 39.8961 19.7833 36.1663C19.7833 32.9104 17.4708 30.185 14.402 29.5449Z" fill="#35404A"/>
<path d="M13.0185 39.0654C14.6196 39.0654 15.9175 37.7675 15.9175 36.1665C15.9175 34.5655 14.6196 33.2676 13.0185 33.2676C11.4175 33.2676 10.1196 34.5655 10.1196 36.1665C10.1196 37.7675 11.4175 39.0654 13.0185 39.0654Z" fill="#FFF9EB"/>
<path d="M29.5606 10.8712V11.8375H30.7845C31.3182 11.8375 31.7505 12.2699 31.7505 12.8037C31.7505 13.3374 31.3182 13.77 30.7845 13.77H29.5606V15.7023C29.5606 16.2361 29.128 16.6686 28.5945 16.6686C28.0609 16.6686 27.6284 16.2362 27.6284 15.7023V9.90513C27.6284 9.37148 28.0609 8.93909 28.5945 8.93909H31.5574C32.0911 8.93909 32.5235 9.37148 32.5235 9.90513C32.5235 10.4389 32.0911 10.8714 31.5574 10.8714H29.5606V10.8712Z" fill="#FFF9EB"/>
<path d="M38.7694 15.0216C39.1449 15.4004 39.1424 16.0123 38.7636 16.388C38.575 16.5747 38.3292 16.6681 38.0832 16.6681C37.8346 16.6681 37.586 16.5727 37.3971 16.3822L35.7645 14.7357H35.2491V15.7018C35.2491 16.2356 34.8165 16.6681 34.2829 16.6681C33.7494 16.6681 33.3169 16.2357 33.3169 15.7018V9.90458C33.3169 9.37093 33.7494 8.93854 34.2829 8.93854H36.1672C37.7565 8.93854 39.0495 10.2389 39.0495 11.8371C39.0495 12.7799 38.5992 13.6188 37.9036 14.1486L38.7694 15.0216ZM37.117 11.8371C37.117 11.3042 36.6908 10.8708 36.1672 10.8708H35.2491V12.8031H36.1672C36.6908 12.8031 37.117 12.3697 37.117 11.8371Z" fill="#FFF9EB"/>
<path d="M45.0383 15.7016C45.0383 16.2354 44.606 16.6679 44.0723 16.6679H41.1094C40.5758 16.6679 40.1433 16.2355 40.1433 15.7016V9.9044C40.1433 9.37074 40.5758 8.93835 41.1094 8.93835H44.0723C44.606 8.93835 45.0383 9.37074 45.0383 9.9044C45.0383 10.4382 44.606 10.8707 44.0723 10.8707H42.0755V11.837H43.2994C43.833 11.837 44.2654 12.2694 44.2654 12.8032C44.2654 13.337 43.833 13.7695 43.2994 13.7695H42.0755V14.7357H44.0723C44.606 14.7355 45.0383 15.1679 45.0383 15.7016Z" fill="#FFF9EB"/>
<path d="M51.0339 15.7016C51.0339 16.2354 50.6016 16.6679 50.0679 16.6679H47.105C46.5714 16.6679 46.1389 16.2355 46.1389 15.7016V9.9044C46.1389 9.37074 46.5714 8.93835 47.105 8.93835H50.0679C50.6016 8.93835 51.0339 9.37074 51.0339 9.9044C51.0339 10.4382 50.6016 10.8707 50.0679 10.8707H48.0711V11.837H49.295C49.8286 11.837 50.261 12.2694 50.261 12.8032C50.261 13.337 49.8286 13.7695 49.295 13.7695H48.0711V14.7357H50.0679C50.6016 14.7355 51.0339 15.1679 51.0339 15.7016Z" fill="#FFF9EB"/>
</svg>
